<svg width="23" height="16" viewBox="0 0 23 16" fill="none" xmlns="http://www.w3.org/2000/svg">
<path d="M22.28 2.50341C22.0183 1.51805 21.2472 0.741931 20.2681 0.478511C18.4936 1.88708e-07 11.3777 0 11.3777 0C11.3777 0 4.26192 1.88708e-07 2.48729 0.47856C1.50825 0.741981 0.737182 1.51805 0.475493 2.50346C-4.7177e-08 4.28953 0 8.01615 0 8.01615C0 8.01615 -4.7177e-08 11.7428 0.475493 13.5288C0.737182 14.5143 1.50825 15.258 2.48729 15.5215C4.26192 16 11.3777 16 11.3777 16C11.3777 16 18.4936 16 20.2681 15.5214C21.2472 15.258 22.0183 14.5142 22.28 13.5288C22.7555 11.7428 22.7555 8.0161 22.7555 8.0161C22.7555 8.0161 22.7555 4.28953 22.28 2.50341Z" fill="black"/>
<path d="M9.05045 11.3996V4.63266L14.9979 8.01622L9.05045 11.3996Z" fill="white"/>
</svg>
